<?xml version="1.0" encoding="UTF-8"?>
<svg id="Capa_1" data-name="Capa 1" xmlns="http://www.w3.org/2000/svg" version="1.1" viewBox="0 0 1920 280">
  <defs>
    <style>
      .cls-1 {
        fill: #b7c6cd;
        stroke-width: 0px;
      }
    </style>
  </defs>
  <path class="cls-1" d="M959.89,282.89c-312.6,0-625.19,0-937.79,0q-21.86,0-21.88-21.93c-.01-55.78.3-111.56-.24-167.34-.12-12.57,2.5-15.61,14.83-11.71,55.95,17.7,112.37,33.73,170.25,43.46,81.43,13.7,161.72,6.99,241.2-14.72,58.94-16.1,115.86-38.21,173.03-59.65,56.13-21.04,112.69-40.69,173.44-41.28,41.3-.4,79.39,12.8,116.35,30.3,51.9,24.57,100.03,56.33,150.96,82.81,67.62,35.16,138.14,40.64,211.56,27.96,79.98-13.81,158.17-36.87,238.56-48.27,70.84-10.05,142.22-14.42,213.58-10.39,67.67,3.83,134.88,13.74,202.02,23.46,8.95,1.3,13.8,5.1,13.73,15.38-.32,46.67-.27,93.35-.03,140.02.04,8.85-3.27,12.55-11.8,11.93-4.42-.33-8.88-.04-13.32-.04-311.48,0-622.97,0-934.45,0Z"/>
</svg>